<svg width="52" height="52" viewBox="0 0 52 52" fill="none" xmlns="http://www.w3.org/2000/svg">
<path fill-rule="evenodd" clip-rule="evenodd" d="M15.3995 0.487374C18.1365 0.361374 19.0091 0.333374 25.9811 0.333374C32.9531 0.333374 33.8258 0.363707 36.5605 0.487374C39.2951 0.611041 41.1618 1.04737 42.7951 1.67971C44.5055 2.32604 46.0571 3.33637 47.3404 4.64304C48.6471 5.92404 49.6551 7.47337 50.2991 9.18604C50.9338 10.8194 51.3678 12.686 51.4938 15.416C51.6198 18.1577 51.6478 19.0304 51.6478 26C51.6478 32.972 51.6175 33.8447 51.4938 36.5817C51.3701 39.3117 50.9338 41.1784 50.2991 42.8117C49.6551 44.5246 48.6454 46.0765 47.3404 47.3594C46.0571 48.666 44.5055 49.674 42.7951 50.318C41.1618 50.9527 39.2951 51.3867 36.5651 51.5127C33.8258 51.6387 32.9531 51.6667 25.9811 51.6667C19.0091 51.6667 18.1365 51.6364 15.3995 51.5127C12.6695 51.389 10.8028 50.9527 9.16945 50.318C7.4566 49.674 5.9047 48.6643 4.62179 47.3594C3.31601 46.0776 2.30552 44.5264 1.66079 42.814C1.02845 41.1807 0.594453 39.314 0.468453 36.584C0.342453 33.8424 0.314453 32.9697 0.314453 26C0.314453 19.028 0.344786 18.1554 0.468453 15.4207C0.59212 12.686 1.02845 10.8194 1.66079 9.18604C2.30647 7.47356 3.31773 5.92244 4.62412 4.64071C5.90521 3.33521 7.45555 2.32474 9.16712 1.67971C10.8005 1.04737 12.6671 0.613374 15.3971 0.487374H15.3995ZM36.3528 5.10737C33.6461 4.98371 32.8341 4.95804 25.9811 4.95804C19.1281 4.95804 18.3161 4.98371 15.6095 5.10737C13.1058 5.22171 11.7478 5.63937 10.8425 5.99171C9.64545 6.45837 8.78912 7.01137 7.89079 7.90971C7.03922 8.73816 6.38387 9.7467 5.97279 10.8614C5.62045 11.7667 5.20279 13.1247 5.08845 15.6284C4.96479 18.335 4.93912 19.147 4.93912 26C4.93912 32.853 4.96479 33.665 5.08845 36.3717C5.20279 38.8754 5.62045 40.2334 5.97279 41.1387C6.38345 42.2517 7.03912 43.262 7.89079 44.0904C8.71912 44.942 9.72945 45.5977 10.8425 46.0084C11.7478 46.3607 13.1058 46.7784 15.6095 46.8927C18.3161 47.0164 19.1258 47.042 25.9811 47.042C32.8365 47.042 33.6461 47.0164 36.3528 46.8927C38.8565 46.7784 40.2145 46.3607 41.1198 46.0084C42.3168 45.5417 43.1731 44.9887 44.0715 44.0904C44.9231 43.262 45.5788 42.2517 45.9895 41.1387C46.3418 40.2334 46.7595 38.8754 46.8738 36.3717C46.9975 33.665 47.0231 32.853 47.0231 26C47.0231 19.147 46.9975 18.335 46.8738 15.6284C46.7595 13.1247 46.3418 11.7667 45.9895 10.8614C45.5228 9.66437 44.9698 8.80804 44.0715 7.90971C43.2429 7.05821 42.2344 6.40287 41.1198 5.99171C40.2145 5.63937 38.8565 5.22171 36.3528 5.10737V5.10737ZM22.7028 33.9124C24.5337 34.6745 26.5723 34.7774 28.4706 34.2034C30.3689 33.6294 32.009 32.4142 33.1109 30.7653C34.2127 29.1164 34.7079 27.1361 34.5119 25.1626C34.3159 23.1892 33.4408 21.345 32.0361 19.945C31.1407 19.0502 30.0579 18.3649 28.8659 17.9387C27.6738 17.5125 26.4021 17.3559 25.1423 17.4801C23.8824 17.6044 22.6658 18.0065 21.58 18.6573C20.4942 19.3082 19.5662 20.1918 18.8628 21.2444C18.1595 22.2969 17.6982 23.4924 17.5123 24.7446C17.3264 25.9968 17.4205 27.2747 17.7877 28.4862C18.155 29.6978 18.7862 30.8128 19.6361 31.7511C20.486 32.6893 21.5334 33.4275 22.7028 33.9124ZM16.6525 16.6714C17.8775 15.4463 19.3319 14.4745 20.9325 13.8116C22.5331 13.1486 24.2486 12.8073 25.9811 12.8073C27.7136 12.8073 29.4291 13.1486 31.0298 13.8115C32.6304 14.4745 34.0847 15.4463 35.3098 16.6714C36.5348 17.8964 37.5066 19.3508 38.1696 20.9514C38.8326 22.552 39.1738 24.2675 39.1738 26C39.1738 27.7325 38.8326 29.4481 38.1696 31.0487C37.5066 32.6493 36.5348 34.1036 35.3098 35.3287C32.8357 37.8028 29.48 39.1928 25.9811 39.1928C22.4822 39.1928 19.1266 37.8028 16.6525 35.3287C14.1783 32.8546 12.7884 29.499 12.7884 26C12.7884 22.5011 14.1783 19.1455 16.6525 16.6714V16.6714ZM42.0998 14.772C42.4034 14.4857 42.6464 14.1413 42.8145 13.7593C42.9826 13.3773 43.0723 12.9655 43.0784 12.5482C43.0845 12.1309 43.0068 11.7167 42.8499 11.3299C42.693 10.9432 42.4601 10.5919 42.165 10.2968C41.8699 10.0017 41.5186 9.76881 41.1319 9.61191C40.7452 9.45502 40.3309 9.37732 39.9136 9.3834C39.4963 9.38948 39.0845 9.47923 38.7025 9.64733C38.3205 9.81543 37.9762 10.0585 37.6898 10.362C37.1328 10.9524 36.8279 11.7367 36.8398 12.5482C36.8516 13.3598 37.1792 14.1348 37.7532 14.7087C38.3271 15.2826 39.1021 15.6102 39.9136 15.6221C40.7252 15.6339 41.5094 15.329 42.0998 14.772V14.772Z" fill="#0F172A"/>
</svg>
