<svg width="54" height="44" viewBox="0 0 54 44" fill="none" xmlns="http://www.w3.org/2000/svg">
<path d="M53.6481 5.57396C51.6998 6.4373 49.6068 7.02063 47.4065 7.2843C49.6768 5.92581 51.3753 3.78772 52.1851 1.26896C50.0521 2.53594 47.7176 3.42775 45.2831 3.90563C43.646 2.15765 41.4776 0.999059 39.1146 0.609737C36.7515 0.220415 34.326 0.622144 32.2147 1.75255C30.1034 2.88296 28.4243 4.67881 27.4382 6.86127C26.4521 9.04374 26.2141 11.4907 26.7611 13.8223C22.4391 13.6053 18.2109 12.4819 14.3511 10.5251C10.4913 8.56824 7.08611 5.82167 4.35648 2.46363C3.42315 4.07363 2.88648 5.9403 2.88648 7.9283C2.88544 9.71795 3.32616 11.4802 4.16953 13.0587C5.0129 14.6371 6.23286 15.9831 7.72115 16.977C5.99513 16.922 4.30718 16.4557 2.79781 15.6166V15.7566C2.79764 18.2667 3.66589 20.6995 5.25524 22.6423C6.84459 24.5851 9.05715 25.9181 11.5175 26.4153C9.91631 26.8486 8.2376 26.9125 6.60815 26.602C7.30231 28.7617 8.65447 30.6504 10.4753 32.0035C12.2962 33.3566 14.4946 34.1064 16.7628 34.148C12.9124 37.1706 8.15722 38.8102 3.26215 38.803C2.39504 38.8032 1.52866 38.7526 0.66748 38.6513C5.63626 41.846 11.4203 43.5415 17.3275 43.535C37.3241 43.535 48.2558 26.973 48.2558 12.609C48.2558 12.1423 48.2441 11.671 48.2231 11.2043C50.3495 9.66657 52.1849 7.76239 53.6435 5.58096L53.6481 5.57396V5.57396Z" fill="#0F172A"/>
</svg>
