<svg width="56" height="36" viewBox="0 0 56 36" fill="none" xmlns="http://www.w3.org/2000/svg">
<path d="M51.3333 5.16667H35V0.5H51.3333V5.16667ZM55.3607 28.5C54.3293 31.5263 50.6263 35.5 43.4583 35.5C36.2857 35.5 30.4757 31.4657 30.4757 22.2583C30.4757 13.135 35.9007 8.445 43.2297 8.445C50.421 8.445 54.8123 12.603 55.7713 18.7723C55.9533 19.953 56.0257 21.5443 55.993 23.7657H37.2633C37.5667 31.258 45.3903 31.4937 47.9687 28.5H55.3607ZM37.4267 19.1667H49.0117C48.7667 15.557 46.361 13.989 43.232 13.989C39.8113 13.989 37.919 15.781 37.4267 19.1667ZM15.0873 35.472H0V0.549H16.2237C29.001 0.738 29.2437 13.2517 22.5703 16.663C30.646 19.603 30.9167 35.472 15.0873 35.472V35.472ZM7 14.5H15.3627C21.2147 14.5 22.1433 7.5 14.6347 7.5H7V14.5ZM14.9123 21.5H7V28.5373H14.7957C21.924 28.5373 21.4877 21.5 14.9123 21.5V21.5Z" fill="#0F172A"/>
</svg>
