<svg width="57" height="48" viewBox="0 0 57 48" fill="none" xmlns="http://www.w3.org/2000/svg">
<path d="M9.68945 0.5625C7.20305 0.5625 4.81848 1.55022 3.06033 3.30837C1.30217 5.06653 0.314453 7.4511 0.314453 9.9375V10.8797L28.4395 26.025L56.5645 10.8844V9.9375C56.5645 7.4511 55.5767 5.06653 53.8186 3.30837C52.0604 1.55022 49.6759 0.5625 47.1895 0.5625H9.68945ZM56.5645 16.2047L29.5504 30.75C29.2089 30.9338 28.8272 31.03 28.4395 31.03C28.0517 31.03 27.67 30.9338 27.3285 30.75L0.314453 16.2047V38.0625C0.314453 40.5489 1.30217 42.9335 3.06033 44.6916C4.81848 46.4498 7.20305 47.4375 9.68945 47.4375H47.1895C49.6759 47.4375 52.0604 46.4498 53.8186 44.6916C55.5767 42.9335 56.5645 40.5489 56.5645 38.0625V16.2047Z" fill="black"/>
</svg>
