<svg width="77" height="76" viewBox="0 0 77 76" fill="none" xmlns="http://www.w3.org/2000/svg">
<path d="M75.1196 15.6338C72.4754 16.8055 69.6349 17.5972 66.6488 17.955C69.7299 16.1113 72.0351 13.2096 73.1341 9.79132C70.2393 11.5108 67.071 12.7211 63.7671 13.3697C61.5453 10.9974 58.6025 9.42502 55.3955 8.89666C52.1885 8.36829 48.8968 8.9135 46.0314 10.4476C43.166 11.9818 40.8872 14.419 39.5489 17.3809C38.2106 20.3428 37.8876 23.6637 38.6301 26.828C32.7645 26.5335 27.0263 25.0089 21.788 22.3532C16.5497 19.6975 11.9283 15.97 8.22378 11.4127C6.95712 13.5977 6.22879 16.131 6.22879 18.829C6.22737 21.2578 6.82549 23.6494 7.97007 25.7916C9.11465 27.9339 10.7703 29.7604 12.7901 31.1093C10.4477 31.0348 8.15688 30.4018 6.10845 29.2632V29.4532C6.10822 32.8597 7.28656 36.1614 9.44353 38.798C11.6005 41.4346 14.6033 43.2438 17.9423 43.9185C15.7693 44.5066 13.491 44.5932 11.2796 44.1718C12.2217 47.1029 14.0568 49.6661 16.5279 51.5024C18.9991 53.3388 21.9827 54.3564 25.061 54.4128C19.8354 58.515 13.3819 60.7401 6.73862 60.7303C5.56183 60.7306 4.38603 60.6619 3.21729 60.5245C9.96063 64.8602 17.8104 67.1613 25.8273 67.1523C52.9656 67.1523 67.8015 44.6753 67.8015 25.1813C67.8015 24.548 67.7856 23.9083 67.7571 23.275C70.6429 21.1881 73.1338 18.6038 75.1133 15.6433L75.1196 15.6338Z" fill="url(#paint0_linear_122_282)"/>
<defs>
<linearGradient id="paint0_linear_122_282" x1="75.1196" y1="37.9263" x2="1.09916" y2="70.3735" gradientUnits="userSpaceOnUse">
<stop stop-color="#1CC3FF"/>
<stop offset="0.497396" stop-color="#A96EE4"/>
<stop offset="1" stop-color="#FF48A9"/>
</linearGradient>
</defs>
</svg>
