<svg width="77" height="76" viewBox="0 0 77 76" fill="none" xmlns="http://www.w3.org/2000/svg">
<path fill-rule="evenodd" clip-rule="evenodd" d="M24.1391 3.37569C27.8536 3.20469 29.038 3.16669 38.5 3.16669C47.962 3.16669 49.1463 3.20785 52.8576 3.37569C56.569 3.54352 59.1023 4.13569 61.319 4.99385C63.6401 5.87102 65.746 7.24219 67.4876 9.01552C69.261 10.754 70.629 12.8567 71.503 15.181C72.3643 17.3977 72.9533 19.931 73.1243 23.636C73.2953 27.3569 73.3333 28.5412 73.3333 38C73.3333 47.462 73.2921 48.6464 73.1243 52.3609C72.9565 56.0658 72.3643 58.5992 71.503 60.8158C70.6289 63.1405 69.2587 65.2466 67.4876 66.9877C65.746 68.761 63.6401 70.129 61.319 71.003C59.1023 71.8643 56.569 72.4534 52.864 72.6244C49.1463 72.7953 47.962 72.8334 38.5 72.8334C29.038 72.8334 27.8536 72.7922 24.1391 72.6244C20.4341 72.4565 17.9008 71.8643 15.6841 71.003C13.3595 70.1289 11.2534 68.7587 9.51229 66.9877C7.74016 65.2481 6.36879 63.143 5.49379 60.819C4.63563 58.6023 4.04663 56.069 3.87563 52.364C3.70463 48.6432 3.66663 47.4589 3.66663 38C3.66663 28.538 3.70779 27.3537 3.87563 23.6424C4.04346 19.931 4.63563 17.3977 5.49379 15.181C6.37008 12.8569 7.7425 10.7518 9.51546 9.01235C11.2541 7.24061 13.3581 5.86926 15.681 4.99385C17.8976 4.13569 20.431 3.54669 24.136 3.37569H24.1391ZM52.5758 9.64569C48.9025 9.47785 47.8005 9.44302 38.5 9.44302C29.1995 9.44302 28.0975 9.47785 24.4241 9.64569C21.0263 9.80085 19.1833 10.3677 17.9546 10.8459C16.3301 11.4792 15.168 12.2297 13.9488 13.4489C12.7931 14.5732 11.9037 15.9419 11.3458 17.4547C10.8676 18.6834 10.3008 20.5264 10.1456 23.9242C9.97779 27.5975 9.94296 28.6995 9.94296 38C9.94296 47.3005 9.97779 48.4025 10.1456 52.0759C10.3008 55.4737 10.8676 57.3167 11.3458 58.5454C11.9031 60.0559 12.793 61.427 13.9488 62.5512C15.073 63.707 16.4441 64.5969 17.9546 65.1542C19.1833 65.6324 21.0263 66.1992 24.4241 66.3544C28.0975 66.5222 29.1963 66.557 38.5 66.557C47.8036 66.557 48.9025 66.5222 52.5758 66.3544C55.9736 66.1992 57.8166 65.6324 59.0453 65.1542C60.6698 64.5209 61.832 63.7704 63.0511 62.5512C64.207 61.427 65.0968 60.0559 65.6541 58.5454C66.1323 57.3167 66.6991 55.4737 66.8543 52.0759C67.0221 48.4025 67.057 47.3005 67.057 38C67.057 28.6995 67.0221 27.5975 66.8543 23.9242C66.6991 20.5264 66.1323 18.6834 65.6541 17.4547C65.0208 15.8302 64.2703 14.668 63.0511 13.4489C61.9267 12.2932 60.558 11.4039 59.0453 10.8459C57.8166 10.3677 55.9736 9.80085 52.5758 9.64569ZM34.0508 48.7382C36.5355 49.7725 39.3023 49.9121 41.8786 49.1331C44.4548 48.3542 46.6807 46.7049 48.1761 44.4671C49.6714 42.2293 50.3435 39.5418 50.0774 36.8635C49.8114 34.1853 48.6238 31.6824 46.7175 29.7825C45.5022 28.568 44.0328 27.6381 42.415 27.0597C40.7972 26.4812 39.0713 26.2687 37.3615 26.4373C35.6517 26.6059 34.0006 27.1516 32.527 28.0349C31.0534 28.9183 29.794 30.1174 28.8394 31.5459C27.8849 32.9744 27.2589 34.5968 27.0066 36.2962C26.7543 37.9957 26.8819 39.7299 27.3803 41.3742C27.8787 43.0184 28.7355 44.5316 29.8889 45.805C31.0423 47.0783 32.4637 48.0801 34.0508 48.7382ZM25.8396 25.3397C27.5022 23.6771 29.476 22.3583 31.6482 21.4585C33.8205 20.5587 36.1487 20.0956 38.5 20.0956C40.8512 20.0956 43.1794 20.5587 45.3517 21.4585C47.5239 22.3583 49.4977 23.6771 51.1603 25.3397C52.8229 27.0023 54.1417 28.976 55.0415 31.1483C55.9413 33.3206 56.4044 35.6488 56.4044 38C56.4044 40.3513 55.9413 42.6795 55.0415 44.8517C54.1417 47.024 52.8229 48.9978 51.1603 50.6604C47.8026 54.0181 43.2485 55.9044 38.5 55.9044C33.7514 55.9044 29.1974 54.0181 25.8396 50.6604C22.4819 47.3026 20.5955 42.7486 20.5955 38C20.5955 33.2515 22.4819 28.6974 25.8396 25.3397ZM60.3753 22.762C60.7873 22.3734 61.1171 21.906 61.3453 21.3876C61.5734 20.8692 61.6952 20.3103 61.7034 19.744C61.7117 19.1776 61.6062 18.6154 61.3933 18.0906C61.1804 17.5657 60.8643 17.089 60.4638 16.6885C60.0633 16.288 59.5866 15.9719 59.0617 15.759C58.5369 15.5461 57.9747 15.4406 57.4083 15.4489C56.842 15.4571 56.2831 15.5789 55.7647 15.8071C55.2463 16.0352 54.7789 16.365 54.3903 16.777C53.6344 17.5783 53.2206 18.6426 53.2367 19.744C53.2527 20.8454 53.6974 21.8971 54.4763 22.676C55.2552 23.4549 56.3069 23.8996 57.4083 23.9156C58.5097 23.9317 59.574 23.5179 60.3753 22.762Z" fill="url(#paint0_linear_122_302)"/>
<defs>
<linearGradient id="paint0_linear_122_302" x1="73.3333" y1="38" x2="-2.53266" y2="65.0351" gradientUnits="userSpaceOnUse">
<stop stop-color="#1CC3FF"/>
<stop offset="0.497396" stop-color="#A96EE4"/>
<stop offset="1" stop-color="#FF48A9"/>
</linearGradient>
</defs>
</svg>
