<svg width="76" height="76" viewBox="0 0 76 76" fill="none" xmlns="http://www.w3.org/2000/svg">
<g clip-path="url(#clip0_122_269)">
<path d="M69.6667 22.1667H47.5V15.8334H69.6667V22.1667ZM75.1323 53.8334C73.7327 57.9405 68.7072 63.3334 58.9792 63.3334C49.2448 63.3334 41.3598 57.8582 41.3598 45.3625C41.3598 32.9809 48.7223 26.6159 58.6688 26.6159C68.4285 26.6159 74.3882 32.2589 75.6897 40.6315C75.9367 42.2339 76.0348 44.3935 75.9905 47.4082H50.5717C50.9833 57.5764 61.6012 57.8962 65.1003 53.8334H75.1323ZM50.7933 41.1667H66.5158C66.1833 36.2679 62.9185 34.1399 58.672 34.1399C54.0297 34.1399 51.4615 36.5719 50.7933 41.1667ZM20.4757 63.2954H0V15.8999H22.0178C39.3585 16.1564 39.6878 33.1392 30.6312 37.7689C41.591 41.7589 41.9583 63.2954 20.4757 63.2954ZM9.5 34.8334H20.8493C28.7913 34.8334 30.0517 25.3334 19.8613 25.3334H9.5V34.8334ZM20.2382 44.3334H9.5V53.884H20.0798C29.754 53.884 29.1618 44.3334 20.2382 44.3334Z" fill="url(#paint0_linear_122_269)"/>
</g>
<defs>
<linearGradient id="paint0_linear_122_269" x1="76.0008" y1="39.5834" x2="5.61063" y2="79.7179" gradientUnits="userSpaceOnUse">
<stop stop-color="#1CC3FF"/>
<stop offset="0.497396" stop-color="#A96EE4"/>
<stop offset="1" stop-color="#FF48A9"/>
</linearGradient>
<clipPath id="clip0_122_269">
<rect width="76" height="76" fill="white"/>
</clipPath>
</defs>
</svg>
