<svg width="100" height="100" viewBox="0 0 100 100" fill="none" xmlns="http://www.w3.org/2000/svg">
<path d="M25 18.75C21.6848 18.75 18.5054 20.067 16.1612 22.4112C13.817 24.7554 12.5 27.9348 12.5 31.25V32.5063L50 52.7L87.5 32.5125V31.25C87.5 27.9348 86.183 24.7554 83.8388 22.4112C81.4946 20.067 78.3152 18.75 75 18.75H25ZM87.5 39.6062L51.4813 59C51.026 59.2451 50.517 59.3734 50 59.3734C49.483 59.3734 48.974 59.2451 48.5187 59L12.5 39.6062V68.75C12.5 72.0652 13.817 75.2446 16.1612 77.5888C18.5054 79.933 21.6848 81.25 25 81.25H75C78.3152 81.25 81.4946 79.933 83.8388 77.5888C86.183 75.2446 87.5 72.0652 87.5 68.75V39.6062Z" fill="url(#paint0_linear_142_490)"/>
<defs>
<linearGradient id="paint0_linear_142_490" x1="87.5" y1="50" x2="9.68414" y2="83.2759" gradientUnits="userSpaceOnUse">
<stop stop-color="#1CC3FF"/>
<stop offset="0.497396" stop-color="#A96EE4"/>
<stop offset="1" stop-color="#FF48A9"/>
</linearGradient>
</defs>
</svg>
