<svg width="33" height="27" viewBox="0 0 33 27" fill="none" xmlns="http://www.w3.org/2000/svg">
<path fill-rule="evenodd" clip-rule="evenodd" d="M12.2986 0.358887H12.2486H12.2486C10.3984 0.358879 8.94096 0.358873 7.76804 0.454705C6.57141 0.552473 5.57213 0.755572 4.66403 1.21827C3.18042 1.97421 1.97421 3.18042 1.21827 4.66403C0.755572 5.57213 0.552473 6.57141 0.454705 7.76804C0.358873 8.94096 0.358879 10.3984 0.358887 12.2486V12.2486V12.2986V14.7016V14.7516V14.7516C0.358879 16.6018 0.358873 18.0593 0.454705 19.2322C0.552473 20.4288 0.755572 21.4281 1.21827 22.3362C1.97421 23.8198 3.18042 25.026 4.66403 25.7819C5.57213 26.2446 6.57141 26.4477 7.76803 26.5455C8.94096 26.6413 10.3985 26.6413 12.2486 26.6413H12.2986H20.709H20.759C22.6092 26.6413 24.0667 26.6413 25.2396 26.5455C26.4362 26.4477 27.4355 26.2446 28.3436 25.7819C29.8272 25.026 31.0334 23.8198 31.7894 22.3362C32.2521 21.4281 32.4552 20.4288 32.5529 19.2322C32.6488 18.0592 32.6488 16.6017 32.6488 14.7516V14.7016V12.2986V12.2486C32.6488 10.3985 32.6488 8.94097 32.5529 7.76804C32.4552 6.57141 32.2521 5.57213 31.7894 4.66403C31.0334 3.18042 29.8272 1.97421 28.3436 1.21827C27.4355 0.755572 26.4362 0.552473 25.2396 0.454705C24.0667 0.358873 22.6092 0.358879 20.759 0.358887H20.709H12.2986ZM5.68677 3.22551C6.22436 2.9516 6.89417 2.78639 7.95148 2.7C9.02194 2.61254 10.3875 2.61167 12.2986 2.61167H20.709C22.6201 2.61167 23.9857 2.61254 25.0562 2.7C26.1135 2.78639 26.7833 2.9516 27.3209 3.22551C28.3806 3.76547 29.2422 4.62705 29.7821 5.68677C30.056 6.22436 30.2212 6.89417 30.3076 7.95148C30.3951 9.02194 30.396 10.3875 30.396 12.2986V14.7016C30.396 16.6127 30.3951 17.9783 30.3076 19.0487C30.2212 20.106 30.056 20.7759 29.7821 21.3134C29.2422 22.3732 28.3806 23.2347 27.3209 23.7747C26.7833 24.0486 26.1135 24.2138 25.0562 24.3002C23.9857 24.3877 22.6201 24.3885 20.709 24.3885H12.2986C10.3875 24.3885 9.02194 24.3877 7.95148 24.3002C6.89417 24.2138 6.22436 24.0486 5.68677 23.7747C4.62705 23.2347 3.76547 22.3732 3.22551 21.3134C2.9516 20.7759 2.78639 20.106 2.7 19.0487C2.61254 17.9783 2.61167 16.6127 2.61167 14.7016V12.2986C2.61167 10.3875 2.61254 9.02194 2.7 7.95148C2.78639 6.89417 2.9516 6.22436 3.22551 5.68677C3.76547 4.62705 4.62705 3.76547 5.68677 3.22551ZM6.54998 5.7638C6.00986 5.45515 5.3218 5.64281 5.01316 6.18293C4.70451 6.72306 4.89217 7.41112 5.43229 7.71976L15.2001 13.3014C16.0081 13.7631 17.0001 13.7631 17.8081 13.3014L27.5759 7.71976C28.1161 7.41112 28.3037 6.72306 27.9951 6.18293C27.6864 5.64281 26.9984 5.45515 26.4582 5.7638L16.6904 11.3454C16.575 11.4114 16.4333 11.4114 16.3178 11.3454L6.54998 5.7638Z" fill="black"/>
</svg>
