<svg width="108" height="108" viewBox="0 0 108 108" fill="none" xmlns="http://www.w3.org/2000/svg">
<g filter="url(#filter0_d_11_699)">
<circle cx="54" cy="50" r="50" fill="url(#paint0_linear_11_699)"/>
<circle cx="54" cy="50" r="50" fill="white" fill-opacity="0.5"/>
<path fill-rule="evenodd" clip-rule="evenodd" d="M52.5868 30.5849L54 29.1716L55.4132 30.5848M56 36.8285L68.5858 49.4143C69.3668 50.1953 70.6332 50.1953 71.4142 49.4143C72.1953 48.6332 72.1953 47.3669 71.4142 46.5858L55.4153 30.5869M52.5848 30.5868L36.5858 46.5858C35.8047 47.3669 35.8047 48.6332 36.5858 49.4143C37.3668 50.1953 38.6332 50.1953 39.4142 49.4143L52 36.8285L52 68.0001C52 69.1046 52.8954 70.0001 54 70.0001C55.1046 70.0001 56 69.1046 56 68.0001L56 36.8285M52.5848 30.5868C52.5855 30.5862 52.5861 30.5855 52.5868 30.5849L52.5848 30.5868Z" fill="#18191A"/>
</g>
<defs>
<filter id="filter0_d_11_699" x="0" y="0" width="108" height="108" filterUnits="userSpaceOnUse" color-interpolation-filters="sRGB">
<feFlood flood-opacity="0" result="BackgroundImageFix"/>
<feColorMatrix in="SourceAlpha" type="matrix" values="0 0 0 0 0 0 0 0 0 0 0 0 0 0 0 0 0 0 127 0" result="hardAlpha"/>
<feOffset dy="4"/>
<feGaussianBlur stdDeviation="2"/>
<feComposite in2="hardAlpha" operator="out"/>
<feColorMatrix type="matrix" values="0 0 0 0 0 0 0 0 0 0 0 0 0 0 0 0 0 0 0.25 0"/>
<feBlend mode="normal" in2="BackgroundImageFix" result="effect1_dropShadow_11_699"/>
<feBlend mode="normal" in="SourceGraphic" in2="effect1_dropShadow_11_699" result="shape"/>
</filter>
<linearGradient id="paint0_linear_11_699" x1="104.286" y1="0.255043" x2="-3.96121" y2="91.2105" gradientUnits="userSpaceOnUse">
<stop stop-color="#1CC3FF"/>
<stop offset="1" stop-color="#FF48A9"/>
</linearGradient>
</defs>
</svg>
